<?xml version="1.0" encoding="UTF-8"?>
<svg version="1.1" xmlns="http://www.w3.org/2000/svg" width="512" height="512">
<path d="M0 0 C1.29158775 -0.01226624 1.29158775 -0.01226624 2.60926819 -0.02478027 C5.43660816 -0.04943937 8.26389893 -0.06609191 11.09130859 -0.08056641 C12.54516527 -0.08855192 12.54516527 -0.08855192 14.02839279 -0.09669876 C19.14994259 -0.12333403 24.27146872 -0.14274715 29.39306641 -0.15722656 C33.62798457 -0.1706078 37.86242569 -0.19855088 42.09716797 -0.23925781 C47.22109179 -0.28849902 52.3445806 -0.31333519 57.46873093 -0.32045364 C59.41840756 -0.32717122 61.36807426 -0.34240643 63.31761551 -0.36634445 C66.04168986 -0.39790961 68.7640726 -0.39804717 71.48828125 -0.390625 C72.29152328 -0.40703033 73.09476532 -0.42343567 73.92234802 -0.44033813 C77.97827584 -0.39508814 79.86785912 -0.00195494 83.09140015 2.5418396 C86.42703653 6.91226233 86.26808134 10.7846365 86.27587891 16.05737305 C86.28084381 16.85771973 86.28580872 17.65806641 86.29092407 18.48266602 C86.30553674 21.13217019 86.31234643 23.78161448 86.31787109 26.43115234 C86.32362357 28.27337139 86.32938129 30.11559043 86.33514404 31.95780945 C86.34565168 35.8222176 86.35149581 39.68660496 86.35498047 43.55102539 C86.36046274 48.49745451 86.38448605 53.44360802 86.41295242 58.38995075 C86.4315972 62.19641415 86.4367854 66.00281143 86.43831635 69.80931664 C86.44133957 71.63253472 86.44935695 73.45575173 86.46250153 75.27892494 C86.47959951 77.8328903 86.47767267 80.38618582 86.47119141 82.94018555 C86.48040619 83.69001205 86.48962097 84.43983856 86.49911499 85.21238708 C86.46161774 89.94090535 85.66258651 93.1989933 83.11474609 97.19287109 C76.98571496 101.11464443 70.50656288 100.6012713 63.41943359 100.56396484 C60.90380729 100.5813553 58.38818232 100.59893959 55.87255859 100.61669922 C51.93633462 100.62673811 48.00020105 100.63037565 44.06396484 100.62866211 C40.24468667 100.63226068 36.42608922 100.65971611 32.60693359 100.68896484 C31.44918427 100.68078232 30.29143494 100.67259979 29.09860229 100.66416931 C18.89430494 100.7557988 8.9445501 102.20278253 1.11474609 109.19287109 C-5.56127091 118.24885791 -5.19339006 130.80490757 -5.29931641 141.51708984 C-5.31868256 142.74450394 -5.33804871 143.97191803 -5.35800171 145.23652649 C-5.41729559 149.11773959 -5.46398092 152.99898316 -5.51025391 156.88037109 C-5.54847991 159.52816976 -5.58753426 162.17595661 -5.62744141 164.82373047 C-5.72295537 171.28000495 -5.80814652 177.73635193 -5.88525391 184.19287109 C-4.87127533 184.18176804 -3.85729675 184.17066498 -2.81259155 184.15922546 C6.75093342 184.05779414 16.31434902 183.9828792 25.87829018 183.93381023 C30.79506503 183.90773494 35.71140507 183.87237467 40.62792969 183.81567383 C45.37418252 183.76128027 50.12001757 183.731435 54.86655807 183.71848488 C56.6758723 183.70925817 58.48516408 183.69124016 60.29430008 183.66422081 C62.83211621 183.62783179 65.36821425 183.6229297 67.90625 183.62524414 C69.02403336 183.59827957 69.02403336 183.59827957 70.16439819 183.57077026 C74.00466434 183.6085747 76.56469084 184.15292526 79.5652771 186.47834778 C83.8161851 191.0044624 83.26739982 195.54411815 83.27587891 201.5222168 C83.28084381 202.36011749 83.28580872 203.19801819 83.29092407 204.06130981 C83.30551648 206.83043238 83.31234286 209.59949766 83.31787109 212.36865234 C83.32362499 214.29672751 83.32938269 216.22480266 83.33514404 218.15287781 C83.34564574 222.1954271 83.35149384 226.23795656 83.35498047 230.28051758 C83.36046318 235.45213571 83.38449001 240.6234903 83.41295242 245.79502583 C83.43160646 249.77824156 83.43678588 253.76139416 83.43831635 257.74464989 C83.44133719 259.6507734 83.44934649 261.55689595 83.46250153 263.46297646 C83.47961974 266.133967 83.47766774 268.80431815 83.47119141 271.4753418 C83.48040619 272.25740494 83.48962097 273.03946808 83.49911499 273.8452301 C83.4600236 279.01052463 82.83191351 282.7343188 80.11474609 287.19287109 C75.04731075 289.91638493 70.81920796 290.62038026 65.06811523 290.53344727 C64.29656097 290.53388535 63.52500671 290.53432343 62.73007202 290.53477478 C60.20308308 290.53270004 57.67677406 290.50943213 55.14990234 290.48583984 C53.38871116 290.48023919 51.62751529 290.47597131 49.86631775 290.47297668 C45.24831055 290.46156482 40.6305899 290.43212941 36.01269531 290.39886475 C31.29349645 290.36808471 26.57425094 290.35445444 21.85498047 290.33935547 C12.60811032 290.30725597 3.36145211 290.2561042 -5.88525391 290.19287109 C-5.88156673 291.30146831 -5.87787956 292.41006552 -5.87408066 293.55225658 C-5.78533908 320.50897856 -5.71957782 347.46568161 -5.67800522 374.42251873 C-5.6573674 387.45857111 -5.62922337 400.49452708 -5.58349609 413.53051758 C-5.54366583 424.89078246 -5.51782998 436.25097754 -5.50889993 447.6113103 C-5.50367876 453.62826192 -5.49138153 459.64501379 -5.46233368 465.66190147 C-5.43522494 471.32288251 -5.4267998 476.98358112 -5.43282318 482.6446209 C-5.43172092 484.72434777 -5.4237402 486.8040839 -5.40843201 488.88375473 C-5.38857539 491.71998653 -5.39329907 494.55514741 -5.40423584 497.3914032 C-5.39258447 498.21728382 -5.38093311 499.04316445 -5.36892867 499.89407176 C-5.41038224 503.86219525 -5.60195051 505.74858415 -7.79031754 509.18046284 C-11.76595458 512.99948327 -15.69809188 512.36072069 -20.93725586 512.38574219 C-21.87561279 512.39391968 -22.81396973 512.40209717 -23.78076172 512.41052246 C-26.89501298 512.43539391 -30.00921864 512.45189637 -33.12353516 512.46630859 C-34.71666062 512.47429411 -34.71666062 512.47429411 -36.34197044 512.48244095 C-41.96275486 512.50917927 -47.58351701 512.5285526 -53.2043457 512.54296875 C-59.01533492 512.55962439 -64.82575785 512.60440827 -70.63653278 512.65534019 C-75.10005865 512.68896479 -79.56344928 512.70054093 -84.02709007 512.70619583 C-86.16934732 512.71292081 -88.31159528 512.72817502 -90.45372963 512.75208664 C-93.45131471 512.78363976 -96.4473614 512.78378963 -99.44506836 512.77636719 C-100.33097153 512.79277252 -101.21687469 512.80917786 -102.12962341 512.82608032 C-106.49117383 512.78184303 -108.33165264 512.61096755 -111.9127655 509.90640259 C-115.40523382 505.10185076 -115.02609482 500.40051838 -115.00550842 494.62554932 C-115.00636285 493.75233496 -115.00721727 492.87912061 -115.00809759 491.97944522 C-115.00974703 489.04828778 -115.00423975 486.11718734 -114.9987793 483.18603516 C-114.99849728 481.08694968 -114.99865544 478.98786411 -114.9992218 476.88877869 C-114.99950922 471.1846434 -114.99362135 465.48052907 -114.98664784 459.77639866 C-114.98040517 453.81730314 -114.97980978 447.85820717 -114.97862244 441.89910889 C-114.97551182 430.61216868 -114.96730205 419.32523813 -114.95727295 408.03830218 C-114.94610345 395.1896039 -114.94059925 382.34090516 -114.93557751 369.49220324 C-114.92511923 343.05908716 -114.90752499 316.62597967 -114.88525391 290.19287109 C-115.70909073 290.19953293 -116.53292755 290.20619476 -117.38172913 290.21305847 C-125.16437126 290.27329289 -132.94689957 290.31890793 -140.72971439 290.34830761 C-144.73047432 290.36393066 -148.73104082 290.38510697 -152.73168945 290.41918945 C-156.59611843 290.45190357 -160.46036193 290.46974937 -164.32491875 290.47750282 C-165.79564773 290.4830248 -167.26636714 290.49380779 -168.73701668 290.51006126 C-170.8049588 290.53199678 -172.87214489 290.53483145 -174.94018555 290.53344727 C-176.70224083 290.54344002 -176.70224083 290.54344002 -178.49989319 290.55363464 C-182.60689546 290.11596881 -185.21806225 289.08514967 -188.88525391 287.19287109 C-192.29937458 282.48140308 -192.31582645 278.02971701 -192.2734375 272.43701172 C-192.27869446 271.57770554 -192.28395142 270.71839935 -192.28936768 269.83305359 C-192.3025245 267.00488881 -192.29384492 264.17729117 -192.28369141 261.34912109 C-192.28571338 259.3766672 -192.28862585 257.40421404 -192.29238892 255.4317627 C-192.29680642 251.30274318 -192.29039962 247.17391868 -192.27636719 243.04492188 C-192.25927572 237.75887783 -192.26911997 232.47329078 -192.28708458 227.18726349 C-192.29793786 223.11570813 -192.29446897 219.04426068 -192.2867012 214.97270203 C-192.28470347 213.0238998 -192.28714344 211.07508769 -192.29413986 209.126297 C-192.30177971 206.40017842 -192.29011468 203.6747945 -192.2734375 200.94873047 C-192.27951019 200.14751266 -192.28558289 199.34629486 -192.2918396 198.52079773 C-192.23732731 193.69791989 -191.57338129 190.35904683 -188.88525391 186.19287109 C-185.20249122 183.73769597 -183.41892004 183.95027405 -179.02709961 183.96582031 C-178.33415802 183.96552826 -177.64121643 183.96523621 -176.92727661 183.9649353 C-174.63840178 183.9663279 -172.34985307 183.98188552 -170.06103516 183.99755859 C-168.47348712 184.00128898 -166.88593678 184.00413583 -165.29838562 184.00613403 C-161.12097817 184.01376849 -156.9437099 184.03341534 -152.76635742 184.05554199 C-148.50327436 184.07600447 -144.2401688 184.08513661 -139.97705078 184.09521484 C-131.61305464 184.11666144 -123.24917159 184.15079509 -114.88525391 184.19287109 C-114.88969513 183.43992767 -114.89413635 182.68698425 -114.89871216 181.91122437 C-114.93930427 174.70717472 -114.96949406 167.50318288 -114.98887825 160.29904747 C-114.99917976 156.59807714 -115.01307868 152.89720366 -115.03613281 149.19628906 C-115.30822955 104.22575171 -115.30822955 104.22575171 -110.19775391 86.31787109 C-109.93647705 85.3679126 -109.6752002 84.4179541 -109.40600586 83.43920898 C-101.21907375 54.76678572 -83.26701517 30.18082714 -57.36962891 15.03271484 C-39.78642131 5.74830814 -19.94006215 0.10628669 0 0 Z " fill="#000000" transform="translate(308.88525390625,-0.19287109375)"/>
</svg>
