<?xml version="1.0" encoding="UTF-8"?>
<svg version="1.1" xmlns="http://www.w3.org/2000/svg" width="600" height="600">
<path d="M0 0 C3.29315272 -0.00071822 6.58630146 -0.00286692 9.87945318 -0.00549722 C21.4375422 -0.01471123 32.9956198 -0.0188374 44.55371237 -0.01804566 C55.21383208 -0.01744713 65.87390082 -0.0279651 76.53400767 -0.04378933 C85.77743848 -0.05700621 95.02085293 -0.06222367 104.26429307 -0.06159025 C109.74417811 -0.06133922 115.22401783 -0.06396527 120.70389318 -0.0747683 C252.24275098 -0.31594293 252.24275098 -0.31594293 302.69287252 43.16725707 C303.78728659 44.07797973 303.78728659 44.07797973 304.90381002 45.00710082 C309.66276322 49.02759576 313.74348289 53.35589747 317.69287252 58.16725707 C318.94584127 59.66385863 318.94584127 59.66385863 320.22412252 61.19069457 C346.93149054 93.66388553 356.31568233 133.96998574 358.69287252 175.16725707 C358.75366743 176.14048305 358.75366743 176.14048305 358.81569052 177.13337016 C360.09476009 198.22212468 359.85753437 219.35677673 359.86012959 240.47438455 C359.86084781 243.76753727 359.86299651 247.06068601 359.86562681 250.35383773 C359.87484083 261.91192675 359.878967 273.47000435 359.87817526 285.02809691 C359.87757672 295.68821662 359.8880947 306.34828537 359.90391892 317.00839221 C359.9171358 326.25182302 359.92235326 335.49523748 359.92171985 344.73867762 C359.92146881 350.21856266 359.92409486 355.69840237 359.9348979 361.17827773 C360.18282152 496.42048353 360.18282152 496.42048353 315.76709127 543.93678832 C313.86807166 545.97886026 312.09449598 548.0817729 310.31787252 550.22975707 C305.98653307 555.18983934 300.89047474 559.15445428 295.69287252 563.16725707 C294.81502096 563.84917113 293.9371694 564.5310852 293.03271627 565.23366332 C250.02085948 597.60341122 195.29134848 600.32830561 143.48925924 600.31252074 C141.47548503 600.31552447 139.46171137 600.31892971 137.44793844 600.32269835 C132.04616674 600.33142287 126.64441094 600.33387163 121.24263287 600.33451414 C117.84479981 600.33523168 114.44697063 600.33737917 111.04913855 600.34001136 C99.12911113 600.34922923 87.20909479 600.35335106 75.28906393 600.3525598 C64.28641941 600.35196117 53.28382425 600.36248003 42.28119218 600.37830347 C32.74820303 600.39151052 23.21522974 600.39673821 13.68223155 600.3961044 C8.02742415 600.39585308 2.37266065 600.39849574 -3.28213739 600.40928245 C-74.36267421 600.53537171 -142.30637582 598.91636028 -195.68212748 545.80397582 C-236.67788537 502.24598305 -240.4696366 440.55900338 -240.45239115 383.96364379 C-240.45539488 381.94986957 -240.45880012 379.93609592 -240.46256876 377.92232299 C-240.47129327 372.52055129 -240.47374203 367.11879548 -240.47438455 361.71701741 C-240.47510209 358.31918436 -240.47724958 354.92135517 -240.47988176 351.52352309 C-240.48909963 339.60349568 -240.49322146 327.68347934 -240.49243021 315.76344848 C-240.49183158 304.76080395 -240.50235044 293.75820879 -240.51817387 282.75557673 C-240.53138092 273.22258758 -240.53660861 263.68961429 -240.5359748 254.15661609 C-240.53572348 248.5018087 -240.53836614 242.8470452 -240.54915285 237.19224715 C-240.67597077 165.70094603 -240.67597077 165.70094603 -235.30712748 138.16725707 C-235.06204447 136.90848754 -235.06204447 136.90848754 -234.81201029 135.62428832 C-226.34091915 93.7229207 -204.72146413 55.91688852 -168.98681498 31.57350707 C-137.8439458 10.95569726 -102.14810554 3.29295409 -65.30712748 1.16725707 C-64.33390291 1.10646264 -64.33390291 1.10646264 -63.34101725 1.04444003 C-42.25226275 -0.23463731 -21.11760806 0.00259522 0 0 Z M-156.03368998 93.47585082 C-160.96987037 98.86453821 -164.72129472 104.82664292 -168.30712748 111.16725707 C-168.7840806 111.98194457 -169.26103373 112.79663207 -169.75243998 113.63600707 C-208.92060894 185.56748719 -187.60196794 314.26341106 -177.99462748 466.01100707 C-173.62637351 480.46625971 -167.39226213 493.83172971 -157.30712748 505.16725707 C-156.75540873 505.84917113 -156.20368998 506.5310852 -155.63525248 507.23366332 C-136.72277912 530.24383924 -106.97662005 540.05605986 -78.30712748 543.16725707 C12.23486173 551.90094099 117.11397241 555.33434724 261.61865377 519.80006957 C272.19456295 510.90238384 281.07512454 501.34377974 287.69287252 489.16725707 C288.01336569 488.57863891 288.33385885 487.99002074 288.66406393 487.38356566 C308.95667163 449.15457632 305.01335255 400.55626631 304.96152353 358.64600158 C304.9563502 353.12606677 304.96118561 347.60613756 304.96429586 342.08620238 C304.96790332 332.82805198 304.96322221 323.5699338 304.95361471 314.31178832 C304.94273649 303.70874613 304.94626438 293.10578095 304.95726752 282.50274062 C304.96643346 273.29055298 304.96758087 264.07838809 304.96239018 254.86619735 C304.95932092 249.41172825 304.95871781 243.95729495 304.96546316 238.50282836 C306.84595467 157.07317104 306.84595467 157.07317104 269.56787252 87.60475707 C237.8099143 55.81901005 188.40816602 55.08421656 146.38720846 55.02062011 C144.59423969 55.02096935 142.80127093 55.02143073 141.00830221 55.0219934 C139.05039549 55.01898928 137.09248935 55.01558396 135.13458395 55.01181579 C129.88583412 55.0030962 124.63710066 55.00064276 119.38834429 55 C116.08701238 54.99928229 112.78568445 54.99713452 109.48435354 54.99450278 C97.90379215 54.98528729 86.32324215 54.98116287 74.74267721 54.98195434 C64.05127671 54.98255324 53.35992697 54.97202836 42.66853929 54.95621067 C33.40564279 54.9430087 24.14276262 54.93777571 14.87985682 54.93840975 C9.38496194 54.93866116 3.89011222 54.9360125 -1.60477304 54.9252317 C-85.68910484 52.95812376 -85.68910484 52.95812376 -156.03368998 93.47585082 Z " fill="#010101" transform="translate(240.30712747573853,-0.16725707054138184)"/>
<path d="M0 0 C0.69754395 0.17160645 1.39508789 0.34321289 2.11376953 0.52001953 C12.8983264 3.23374095 22.99288659 7.18063878 33 12 C33.62616211 12.29745117 34.25232422 12.59490234 34.89746094 12.90136719 C69.68250461 29.65106287 97.69684074 61.71477689 110.69335938 97.96801758 C123.96894878 137.56394386 122.78449189 181.72199624 104.125 219.4375 C84.17162074 258.06067959 51.62086066 285.89492357 10.25 299.3125 C3.26211738 301.33460176 -3.84485999 302.71322224 -11 304 C-11.95132813 304.17789062 -12.90265625 304.35578125 -13.8828125 304.5390625 C-52.32104653 310.22291164 -94.06930594 300.37460949 -125.36425781 277.19482422 C-131.52677928 272.4579607 -137.35167402 267.33401652 -143 262 C-143.79792969 261.26652344 -144.59585938 260.53304688 -145.41796875 259.77734375 C-170.26240773 236.11785416 -187.7143521 199.55556518 -189.16113281 165.17041016 C-189.18101716 163.79336669 -189.19473991 162.41622399 -189.203125 161.0390625 C-189.20882507 160.29022797 -189.21452515 159.54139343 -189.22039795 158.76986694 C-189.22979745 157.18822619 -189.2363617 155.60656629 -189.24023438 154.02490234 C-189.2498333 151.66596736 -189.28085914 149.30794597 -189.3125 146.94921875 C-189.59879869 105.7173499 -170.82340656 68.70826743 -142.8125 39.4375 C-122.72866287 19.78341687 -97.22797836 6.5323608 -70 0 C-68.08960938 -0.47759766 -68.08960938 -0.47759766 -66.140625 -0.96484375 C-45.57903529 -5.50008276 -20.38575835 -5.11183669 0 0 Z M-62 55 C-62.62487305 55.19867676 -63.24974609 55.39735352 -63.89355469 55.60205078 C-78.67113938 60.40674527 -91.37421757 67.5813675 -103 78 C-103.68320313 78.58910156 -104.36640625 79.17820312 -105.0703125 79.78515625 C-124.13562247 97.34531017 -133.83464974 123.60205531 -135 149 C-135.55899258 175.85048645 -124.60301998 200.98552262 -106.625 220.58984375 C-88.21914046 239.71468217 -63.34376044 249.95949241 -37 251 C-8.66839803 251.53355183 16.6685004 239.49736919 37.0625 220.3125 C57.07210864 199.57819729 64.60407893 172.82138869 64.2734375 144.67578125 C63.5284769 118.58372054 50.68998378 94.84384212 31.96484375 77.046875 C20.43696186 66.58535376 6.9116732 59.39085065 -8 55 C-9.01320313 54.68160156 -10.02640625 54.36320312 -11.0703125 54.03515625 C-26.88777868 49.81846072 -46.40498175 49.97240896 -62 55 Z " fill="#010101" transform="translate(335,149)"/>
<path d="M0 0 C8.6480002 7.98649272 12.21809524 17.5887903 12.78125 29.24609375 C12.19849509 40.14361062 7.77244044 49.16212478 -0.17578125 56.55859375 C-9.00335386 63.85020249 -19.07315004 65.21194951 -30.23242188 64.47998047 C-39.30967836 63.41114914 -47.47165159 58.19712977 -53.21875 51.24609375 C-59.62888823 40.58957704 -62.12134429 30.02872425 -59.72265625 17.6953125 C-59.03125 15.74609375 -59.03125 15.74609375 -57.21875 12.24609375 C-56.8784375 11.58480469 -56.538125 10.92351562 -56.1875 10.2421875 C-51.22066734 1.39921178 -43.37242711 -4.58986286 -33.7265625 -7.5078125 C-21.7100495 -10.27683506 -9.66851876 -7.64289599 0 0 Z " fill="#010101" transform="translate(484.21875,111.75390625)"/>
</svg>
